<svg width="300" height="87" viewBox="0 0 300 87" fill="none" xmlns="http://www.w3.org/2000/svg">
<path d="M177.565 43.8065C177.145 43.1541 177.596 42.2931 178.371 42.2663L200.82 41.4884C201.177 41.476 201.513 41.6549 201.702 41.9578L228.198 84.3509C228.614 85.017 228.135 85.8809 227.35 85.8809H205.163C204.823 85.8809 204.506 85.7079 204.322 85.4218L177.565 43.8065Z" fill="black"/>
<path d="M195.857 18.3278C195.657 18.0255 195.636 17.6383 195.802 17.316L204.074 1.30783C204.246 0.975585 204.589 0.766907 204.963 0.766907H223.773C224.527 0.766907 225.01 1.57018 224.656 2.23624L207.885 33.7897C207.53 34.4589 206.588 34.5047 206.169 33.8732L195.857 18.3278Z" fill="black"/>
<path d="M233.338 18.2803C232.786 18.2803 232.338 17.8326 232.338 17.2803V1C232.338 0.447717 232.786 0 233.338 0H299C299.552 0 300 0.447715 300 1V17.2803C300 17.8326 299.552 18.2803 299 18.2803H277.904C277.352 18.2803 276.904 18.728 276.904 19.2803V84.8806C276.904 85.4329 276.457 85.8806 275.904 85.8806H256.557C256.005 85.8806 255.557 85.4329 255.557 84.8806V19.2803C255.557 18.728 255.109 18.2803 254.557 18.2803H233.338Z" fill="black"/>
<path d="M175.469 84.8037C175.048 85.4739 174.313 85.8807 173.521 85.8807H154.102C152.278 85.8807 151.18 83.8591 152.172 82.3286L172.248 51.3751C177.853 42.7333 177.133 41.633 171.282 32.9721L151.949 4.35503C150.917 2.82729 152.011 0.766907 153.855 0.766907H172.411C173.161 0.766907 173.863 1.13241 174.294 1.74633L201.556 40.6141C202.088 41.3719 202.113 42.3745 201.621 43.1584L175.469 84.8037Z" fill="#9893F2"/>
<path d="M101.217 35.2725C101.217 34.002 102.247 32.9721 103.517 32.9721H171.282H177.129C180.996 32.9721 182.283 51.3751 177.129 51.3751H172.248H103.517C102.247 51.3751 101.217 50.3452 101.217 49.0747V35.2725Z" fill="#9893F2"/>
<path d="M147.224 84.8807C147.224 85.433 146.776 85.8807 146.224 85.8807H86.1141C85.5618 85.8807 85.1141 85.433 85.1141 84.8807V1.76691C85.1141 1.21462 85.5618 0.766907 86.1141 0.766907H144.689C145.241 0.766907 145.689 1.21462 145.689 1.76691V17.5192C145.689 18.0715 145.241 18.5192 144.689 18.5192H106.66C106.108 18.5192 105.66 18.9669 105.66 19.5192V34.0829V51.3488V67.0068C105.66 67.5591 106.108 68.0068 106.66 68.0068H146.224C146.776 68.0068 147.224 68.4545 147.224 69.0068V84.8807Z" fill="black"/>
<path d="M76.4337 85.6475C76.4337 86.1998 75.986 86.6475 75.4337 86.6475H59.2523C58.9458 86.6475 58.6562 86.5069 58.4666 86.2661L22.8879 41.0683C22.3007 40.3224 21.1021 40.7376 21.1021 41.6868V85.6475C21.1021 86.1998 20.6544 86.6475 20.1021 86.6475H0.999999C0.447714 86.6475 0 86.1998 0 85.6475V1.76691C0 1.21462 0.447715 0.766907 1 0.766907H17.1822C17.4883 0.766907 17.7775 0.907105 17.9672 1.14739L55.3317 48.492L76.2088 74.103C76.3543 74.2814 76.4337 74.5046 76.4337 74.7348V85.6475Z" fill="black"/>
<path d="M55.5637 35.5507C55.4138 35.371 55.3317 35.1443 55.3317 34.9103V1.76691C55.3317 1.21462 55.7794 0.766907 56.3317 0.766907H75.4338C75.986 0.766907 76.4338 1.21462 76.4338 1.76691V57.8161C76.4338 58.7512 75.2647 59.1747 74.6658 58.4566L55.5637 35.5507Z" fill="black"/>
</svg>
